<?xml version="1.0" encoding="UTF-8" standalone="no"?>
<!-- Created with Inkscape (http://www.inkscape.org/) -->

<svg
   xmlns:dc="http://purl.org/dc/elements/1.1/"
   xmlns:cc="http://creativecommons.org/ns#"
   xmlns:rdf="http://www.w3.org/1999/02/22-rdf-syntax-ns#"
   xmlns:svg="http://www.w3.org/2000/svg"
   xmlns="http://www.w3.org/2000/svg"
   xmlns:xlink="http://www.w3.org/1999/xlink"
   xmlns:sodipodi="http://sodipodi.sourceforge.net/DTD/sodipodi-0.dtd"
   xmlns:inkscape="http://www.inkscape.org/namespaces/inkscape"
   width="210mm"
   height="297mm"
   viewBox="0 0 210 297"
   version="1.1"
   id="svg3631"
   inkscape:version="0.92.4 (5da689c313, 2019-01-14)"
   sodipodi:docname="penguin linux.svg">
  <defs
     id="defs3625">
    <clipPath
       clipPathUnits="userSpaceOnUse"
       id="clipPath18">
      <path
         d="M 0,600.949 H 847.559 V 0 H 0 Z"
         id="path16"
         inkscape:connector-curvature="0" />
    </clipPath>
    <linearGradient
       id="a"
       x1="104.73"
       x2="494.51999"
       y1="335.72"
       y2="895.84003"
       gradientUnits="userSpaceOnUse">
      <stop
         stop-color="#e00"
         offset="0"
         id="stop2" />
      <stop
         stop-color="#9a0000"
         offset="1"
         id="stop4" />
    </linearGradient>
    <clipPath
       id="SVGID_6_-19-1-2">
      <use
         id="use35-7-6-6"
         overflow="visible"
         xlink:href="#SVGID_5_"
         style="overflow:visible"
         x="0"
         y="0"
         width="100%"
         height="100%" />
    </clipPath>
  </defs>
  <sodipodi:namedview
     id="base"
     pagecolor="#ffffff"
     bordercolor="#666666"
     borderopacity="1.0"
     inkscape:pageopacity="0.0"
     inkscape:pageshadow="2"
     inkscape:zoom="0.18503726"
     inkscape:cx="-1438.2819"
     inkscape:cy="-212.0808"
     inkscape:document-units="mm"
     inkscape:current-layer="g1507"
     showgrid="false"
     showguides="true"
     inkscape:guide-bbox="true"
     inkscape:window-width="1920"
     inkscape:window-height="1001"
     inkscape:window-x="-9"
     inkscape:window-y="-9"
     inkscape:window-maximized="1"
     inkscape:snap-global="false">
    <sodipodi:guide
       position="72.922013,252.88982"
       orientation="0,1"
       id="guide4178"
       inkscape:locked="false" />
    <sodipodi:guide
       position="99.099147,43.94019"
       orientation="0,1"
       id="guide4180"
       inkscape:locked="false" />
  </sodipodi:namedview>
  <metadata
     id="metadata3628">
    <rdf:RDF>
      <cc:Work
         rdf:about="">
        <dc:format>image/svg+xml</dc:format>
        <dc:type
           rdf:resource="http://purl.org/dc/dcmitype/StillImage" />
        <dc:title></dc:title>
      </cc:Work>
    </rdf:RDF>
  </metadata>
  <g
     inkscape:label="Layer 1"
     inkscape:groupmode="layer"
     id="layer1">
    <g
       id="g11993"
       transform="translate(0.01320793,-14.655723)">
      <g
         id="g1507">
        <g
           id="g2336"
           transform="matrix(0.79370321,0,0,0.79370321,288.85283,-239.6891)">
          <path
             id="path4182"
             d="m -227.14129,400.11714 c -1.37985,-0.002 -2.81913,0.0554 -4.32011,0.17505 -37.93332,3.05488 -27.87386,43.12973 -28.43742,56.5494 -0.69273,9.81366 -2.68261,17.54769 -9.43187,27.14095 -7.92956,9.42975 -19.09365,24.69197 -24.38241,40.57914 -2.49603,7.4983 -3.68379,15.14079 -2.58686,22.37397 -0.34361,0.30771 -0.67074,0.6301 -0.98179,0.96218 -2.32815,2.48549 -4.04839,5.49698 -5.96503,7.52475 -1.79078,1.78633 -4.34208,2.46581 -7.14587,3.4716 -2.80484,1.00637 -5.88433,2.49004 -7.75361,6.07695 0,0 0,10e-4 -0.001,0.002 -0.003,0.006 -0.006,0.0116 -0.01,0.0176 -1.69217,3.16071 -1.18912,6.80032 -0.67231,10.17244 0.51682,3.37211 1.04,6.55849 0.34555,8.7204 -2.21985,6.06742 -2.50325,10.26424 -0.94057,13.3088 1.56605,3.05065 4.78605,4.39711 8.42513,5.15726 7.27842,1.52017 17.13521,1.14239 24.90364,5.25965 l 0.6677,-1.25984 -0.66079,1.2636 c 8.31638,4.3479 16.74759,5.89254 23.4741,4.3561 4.8768,-1.11389 8.83576,-4.0177 10.86881,-8.48624 5.26124,-0.0259 11.03445,-2.25415 20.2827,-2.76331 6.27406,-0.50536 14.11129,2.22795 23.12591,1.72738 0.23564,0.97803 0.57668,1.91876 1.04352,2.81279 0.005,0.009 0.009,0.0183 0.0142,0.0274 3.49462,6.98791 9.98776,10.18434 16.90767,9.63824 6.92891,-0.54681 14.2957,-4.63232 20.25068,-11.71919 l -1.0917,-0.91744 1.10003,0.90736 c 5.67584,-6.88234 15.09713,-9.73614 21.3442,-13.5038 3.12341,-1.88394 5.65812,-4.24286 5.85391,-7.66922 0.19572,-3.4245 -1.81478,-7.26228 -6.43784,-12.39414 l -0.001,-10e-4 c -0.002,-0.002 -0.004,-0.004 -0.005,-0.006 -1.519,-1.71656 -2.24364,-4.89796 -3.02234,-8.28595 -0.77822,-3.38588 -1.64687,-7.03845 -4.42674,-9.40541 -0.006,-0.005 -0.0112,-0.009 -0.0168,-0.0142 -1.10633,-0.96403 -2.25599,-1.61832 -3.41365,-2.0579 3.86477,-11.46201 2.34844,-22.87561 -1.55287,-33.18933 -4.78862,-12.65875 -13.14786,-23.68817 -19.53173,-31.23224 -7.14587,-9.01329 -14.1351,-17.57071 -13.99752,-30.21012 0.21285,-19.28998 2.12183,-55.06244 -31.82408,-55.11006 z"
             style="color:#000000;text-indent:0;text-decoration:none;text-decoration-line:none;text-transform:none;stroke-width:0.26458332"
             inkscape:connector-curvature="0" />
          <path
             id="path4180"
             d="m -222.54574,429.83514 c 1.92617,0 3.57135,0.5646 5.26098,1.79113 1.71669,1.24597 2.95354,2.80564 3.95023,4.98395 0.97832,2.12281 1.44901,4.19947 1.49518,6.6638 0,0.0646 0,0.11997 0.0184,0.18458 0.0184,2.52889 -0.41531,4.67942 -1.37519,6.87599 -0.54772,1.25341 -1.17671,2.30542 -1.92956,3.21628 -0.25558,-0.12271 -0.52101,-0.24069 -0.79634,-0.35391 -1.90828,-0.81732 -3.37211,-1.33747 -4.59237,-1.76083 0.44227,-0.53163 0.81052,-1.16213 1.13437,-1.95029 0.48916,-1.1906 0.72914,-2.35355 0.77528,-3.73804 0,-0.0554 0.0185,-0.10154 0.0185,-0.16615 0.0277,-1.32902 -0.14767,-2.46427 -0.5353,-3.62717 -0.40611,-1.21827 -0.92295,-2.09508 -1.67056,-2.82416 -0.74758,-0.72917 -1.49518,-1.0614 -2.39046,-1.08911 -0.042,-0.003 -0.0838,-0.003 -0.12516,-0.003 -0.84211,0.003 -1.57334,0.29131 -2.32987,0.9247 -0.79372,0.66455 -1.38443,1.51363 -1.87359,2.69504 -0.48916,1.18137 -0.72914,2.3535 -0.77526,3.7473 -0.009,0.0554 -0.009,0.10154 -0.009,0.1569 -0.016,0.76608 0.0327,1.46786 0.15085,2.14932 -1.7231,-0.8586 -3.34698,-1.44396 -4.87098,-1.80668 -0.0869,-0.659 -0.13713,-1.33903 -0.15317,-2.05007 v -0.19384 c -0.0277,-2.51966 0.38764,-4.67942 1.35673,-6.87599 0.96912,-2.19663 2.16895,-3.77481 3.85789,-5.05778 1.689,-1.28288 3.35042,-1.87357 5.31627,-1.89203 h 0.092 z"
             style="color:#000000;text-indent:0;text-decoration:none;text-decoration-line:none;text-transform:none;fill:#ffffff;stroke-width:0.26458332"
             inkscape:connector-curvature="0" />
          <path
             id="path4178"
             d="m -248.90935,431.92244 c 1.27778,0.003 2.42115,0.42992 3.60389,1.37435 1.28291,1.02444 2.252,2.33503 3.06414,4.18095 0.81219,1.84592 1.24597,3.69173 1.36596,5.87005 v 0.0183 c 0.0582,0.91482 0.0511,1.77593 -0.0211,2.6099 -0.25272,0.0718 -0.50038,0.14955 -0.74297,0.23307 -1.37777,0.47427 -2.592,1.12056 -3.6502,1.81938 0.10349,-0.73099 0.11889,-1.47267 0.0395,-2.2996 -0.009,-0.0462 -0.009,-0.0831 -0.009,-0.12919 -0.11075,-1.09831 -0.34149,-2.02126 -0.72914,-2.95355 -0.41531,-0.96906 -0.8768,-1.65205 -1.48595,-2.17815 -0.55203,-0.47673 -1.07362,-0.69567 -1.64745,-0.69133 -0.0594,0 -0.11941,0.003 -0.17997,0.008 -0.64606,0.0553 -1.18139,0.36915 -1.68902,0.98753 -0.50763,0.61838 -0.83987,1.38443 -1.07985,2.39964 -0.23997,1.01526 -0.30459,2.01205 -0.20305,3.15648 0,0.0461 0.009,0.0831 0.009,0.12921 0.11074,1.10754 0.33226,2.03049 0.72914,2.9628 0.40611,0.95986 0.8768,1.64285 1.48595,2.16892 0.10202,0.0881 0.20294,0.16725 0.3034,0.23796 -0.6336,0.48765 -0.93615,0.71247 -1.45537,1.09397 -0.333,0.24435 -0.72961,0.53528 -1.1906,0.87508 -1.00531,-0.94175 -1.78953,-2.12531 -2.47525,-3.68379 -0.8122,-1.84589 -1.24598,-3.69173 -1.3752,-5.87005 v -0.0183 c -0.11998,-2.17815 0.0923,-4.05183 0.6922,-5.9899 0.59992,-1.9382 1.4029,-3.34116 2.5658,-4.49474 1.16292,-1.15366 2.33508,-1.73514 3.74729,-1.80893 0.11032,-0.006 0.21965,-0.009 0.32793,-0.008 z"
             style="color:#000000;text-indent:0;text-decoration:none;text-decoration-line:none;text-transform:none;fill:#ffffff;stroke-width:0.26458332"
             inkscape:connector-curvature="0" />
          <path
             id="path4176"
             d="m -236.91923,447.03385 c 2.96995,-0.0115 6.54368,0.96221 10.87041,3.74412 2.65747,1.72823 4.72546,1.87267 9.48743,3.91213 l 0.006,0.003 0.006,0.002 c 2.29111,0.94004 3.63591,2.1653 4.29287,3.45546 0.65701,1.29027 0.67307,2.68949 0.12315,4.16137 -1.0998,2.94375 -4.61037,6.04202 -9.53665,7.58031 l -0.005,0.002 -0.004,0.002 c -2.40204,0.78041 -4.49659,2.50386 -6.96595,3.91583 -2.46927,1.41198 -5.26335,2.55082 -9.06277,2.33103 -3.23453,-0.18851 -5.16784,-1.28656 -6.91621,-2.6916 -1.74826,-1.40502 -3.27184,-3.17024 -5.50254,-4.48019 l -0.006,-0.003 -0.006,-0.003 c -3.5933,-2.03102 -5.55519,-4.38018 -6.17088,-6.41641 -0.61571,-2.03647 -0.0379,-3.77481 1.74496,-5.11096 2.0044,-1.50217 3.39672,-2.52396 4.32435,-3.20463 0.92138,-0.67612 1.30474,-0.92964 1.59816,-1.2114 0.002,-0.002 0.003,-0.003 0.005,-0.005 l 0.001,-0.002 c 1.50606,-1.4256 3.90684,-4.02299 7.52581,-5.26864 1.24555,-0.42879 2.63541,-0.70541 4.191,-0.71155 z"
             style="color:#000000;text-indent:0;text-decoration:none;text-decoration-line:none;text-transform:none;stroke-width:0.26458332"
             inkscape:connector-curvature="0" />
          <path
             id="path4174"
             d="m -216.15182,459.31634 c -1.28159,0.0764 -2.62384,0.73626 -4.18676,1.60883 -1.5629,0.87254 -3.32053,1.98868 -5.225,3.08795 -3.8092,2.19829 -8.19441,4.30054 -12.5521,4.30054 -4.36456,0 -7.85177,-2.01576 -10.46718,-4.08834 -1.30773,-1.03632 -2.38707,-2.08016 -3.24934,-2.88767 -0.43114,-0.40378 -0.80508,-0.7479 -1.15398,-1.01669 -0.34886,-0.26879 -0.63281,-0.5353 -1.21656,-0.5353 l -0.028,1.22666 c -0.0418,0.41045 -0.0848,0.3978 -0.0678,0.40899 0.0272,0.0179 0.16268,0.0646 0.32073,0.18633 0.25651,0.1976 0.61256,0.51972 1.03513,0.91546 0.84516,0.79147 1.96821,1.87965 3.35095,2.97524 2.76542,2.19138 6.61114,4.4397 11.47603,4.4397 4.87178,0 9.48082,-2.27705 13.36437,-4.51802 1.94173,-1.12056 3.70523,-2.23909 5.20489,-3.07631 1.49952,-0.83722 2.76119,-1.36223 3.4917,-1.40578 l -0.0969,-1.6215 z"
             style="color:#000000;text-indent:0;text-decoration:none;text-decoration-line:none;text-transform:none;stroke-width:0.26458332"
             inkscape:connector-curvature="0" />
          <path
             id="path4172"
             d="m -211.82138,465.14617 c 3.23559,12.75477 10.7614,31.1785 15.59851,40.16904 2.57103,4.76991 7.68614,14.90477 9.89594,27.1145 1.40031,-0.0429 2.94217,0.16056 4.59344,0.5829 5.77797,-14.97938 -4.89982,-31.115 -9.78244,-35.60762 -1.97128,-1.91284 -2.06603,-2.76993 -1.08879,-2.72945 5.29749,4.68472 12.25206,14.10732 14.78227,24.74278 1.15374,4.84955 1.39973,9.9478 0.16181,14.97939 0.60566,0.2516 1.22076,0.52517 1.84417,0.82026 9.27497,4.51643 12.70503,8.44364 11.05588,13.80384 -0.54322,-0.019 -1.07754,-0.0169 -1.59872,-0.004 -0.0486,10e-4 -0.0969,0.003 -0.14538,0.004 1.34311,-4.24868 -1.63232,-7.38241 -9.56098,-10.96989 -8.22351,-3.61792 -14.77645,-3.25808 -15.884,4.07934 -0.0709,0.38442 -0.12789,0.77613 -0.17132,1.1733 -0.61439,0.21335 -1.23212,0.48575 -1.8514,0.8246 -3.86159,2.11288 -5.969,5.94677 -7.14137,10.64895 -1.17128,4.69847 -1.50706,10.37828 -1.83033,16.76347 v 0.003 c -0.19751,3.21072 -1.51749,7.55306 -2.85618,12.15231 -13.47126,9.6094 -32.16804,13.77262 -48.04304,2.93899 -1.07582,-1.70185 -2.30992,-3.38799 -3.58008,-5.05116 -0.81119,-1.06204 -1.64449,-2.11759 -2.47293,-3.15833 1.6296,10e-4 3.01466,-0.26562 4.13438,-0.77322 1.39216,-0.63127 2.3703,-1.64518 2.85433,-2.94693 0.96782,-2.60331 -0.004,-6.27565 -3.10251,-10.46956 -3.098,-4.19338 -8.34522,-8.92598 -16.05571,-13.65462 0,0 -10e-4,0 -10e-4,-10e-4 -5.66446,-3.52399 -8.83232,-7.84357 -10.31504,-12.53331 -1.48291,-4.69027 -1.275,-9.76207 -0.13211,-14.76931 2.19369,-9.61125 7.83008,-18.95898 11.4263,-24.82532 0.96824,-0.71242 0.34594,1.32241 -3.64067,8.72569 -3.57293,6.76857 -10.2526,22.38904 -1.10696,34.58369 0.2444,-8.67728 2.31669,-17.52706 5.79543,-25.80508 5.0673,-11.48636 15.66598,-31.40604 16.50789,-47.28104 0.43402,0.31517 1.92548,1.32149 2.59003,1.69942 0.001,0.002 0.003,0.002 0.004,0.002 1.94437,1.14501 3.40466,2.81887 5.2959,4.33864 1.89508,1.52302 4.26244,2.83845 7.83934,3.04694 4.17486,0.24158 7.35674,-1.05151 9.96341,-2.54217 2.60297,-1.48841 4.68233,-3.13558 6.65242,-3.77851 0.003,-0.002 0.006,-0.002 0.009,-0.003 4.16295,-1.30181 7.47289,-3.60601 9.35646,-6.29338 z"
             style="color:#000000;text-indent:0;text-decoration:none;text-decoration-line:none;text-transform:none;fill:#ffffff;stroke-width:0.26458332"
             inkscape:connector-curvature="0" />
          <path
             id="path4170"
             d="m -185.38051,538.16852 c 1.68616,-0.008 3.72877,0.55436 5.9645,1.55459 6.01768,2.77812 7.90046,5.15937 6.25766,8.65716 -1.3844,2.63965 -7.30964,6.83895 -11.37073,5.73141 -4.14417,-1.07061 -6.16532,-7.04215 -5.49169,-11.55542 0.36089,-3.06466 2.09439,-4.3762 4.64026,-4.38811 z"
             style="color:#000000;text-indent:0;text-decoration:none;text-decoration-line:none;text-transform:none;stroke-width:0.26458332"
             inkscape:connector-curvature="0" />
          <path
             d="m -192.38033,546.5021 c -5.58032,2.28732 -6.08806,9.30328 -6.98791,14.4571 -0.82611,8.61642 -1.68965,17.21035 -4.41245,25.47435 -1.45315,6.41985 -4.10131,14.18325 0.45505,19.99535 2.91465,4.28281 8.21373,6.57569 13.32733,5.57451 9.84911,-0.58859 15.78531,-9.57527 22.95631,-15.09077 6.16876,-5.16573 14.6685,-6.83313 20.3999,-12.51877 2.69796,-3.97986 -1.23933,-8.34998 -3.41894,-11.55038 -4.99296,-5.06148 -4.09946,-12.87701 -8.19177,-18.40362 -2.49481,-2.85803 -7.16333,-3.38746 -10.52724,-1.97972 -4.47754,3.74121 -10.38093,7.26546 -16.3994,5.71394 -4.11401,-2.1898 -6.50293,-6.98077 -6.78419,-11.50885 -0.10243,-0.11791 -0.26277,-0.17563 -0.41708,-0.16308 z"
             id="path10"
             inkscape:connector-curvature="0"
             style="fill:#ffbb00;fill-opacity:1;stroke-width:0.26458332" />
          <path
             d="m -289.27075,546.89104 c -5.81554,0.39431 -8.22404,6.81143 -12.02663,10.30578 -4.14867,4.33838 -12.17004,3.77931 -14.64204,9.8679 -1.60745,6.4696 2.25319,13.21727 -0.55052,19.53049 -1.06746,3.73406 -2.30225,9.4488 2.07957,11.59272 9.00324,3.30332 19.12329,2.15889 27.93735,6.25739 6.85192,3.05409 14.18485,6.2738 21.87787,4.88659 6.71804,-0.46215 12.2555,-6.83789 11.31808,-13.60223 -1.23399,-7.41203 -7.15909,-12.83149 -11.33184,-18.719 -7.26757,-8.32909 -9.50118,-20.11151 -17.96282,-27.49286 -1.86786,-1.56289 -4.2127,-2.71515 -6.6982,-2.6281 z"
             id="path12"
             inkscape:connector-curvature="0"
             style="fill:#ffbb00;stroke-width:0.26458332" />
          <path
             d="m -237.03935,446.78859 c -3.36947,-10e-4 -6.59712,1.4593 -9.12601,3.63034 -1.64658,1.41156 -3.18849,2.95302 -4.99401,4.1709 -1.5149,1.16517 -3.14351,2.20932 -4.51617,3.54462 -1.22187,1.30302 -1.39864,3.29882 -0.70972,4.90167 0.87196,2.22327 2.72971,3.88964 4.64794,5.22261 1.83829,1.11559 3.6142,2.34347 5.17339,3.83275 2.01713,1.84423 4.29525,3.65866 7.07523,4.0984 1.89097,0.33554 3.84863,0.24175 5.73484,-0.078 3.40492,-0.70842 6.29179,-2.74532 9.20062,-4.53469 1.39483,-0.9184 2.98635,-1.42981 4.53258,-2.02049 3.2004,-1.3434 6.32989,-3.4552 7.89437,-6.6548 0.89183,-1.75848 0.86575,-4.02088 -0.37692,-5.60944 -1.63812,-2.16889 -4.35716,-3.00725 -6.78313,-3.95816 -2.37204,-0.88779 -4.86383,-1.55895 -6.985,-2.99562 -3.22527,-2.01384 -6.90324,-3.58563 -10.76775,-3.54965 z m 20.63644,12.81562 c 0.0923,0.35806 0.0355,0.74813 0.0536,1.11805 -2.05703,0.4599 -3.79518,1.74334 -5.61446,2.74108 -4.14152,2.42647 -8.34443,5.05328 -13.13868,5.93064 -1.57115,0.25592 -3.24114,0.25756 -4.85431,0.17151 -3.1242,-0.36658 -6.07853,-1.74064 -8.5844,-3.62717 -1.95623,-1.39116 -3.62771,-3.125 -5.46021,-4.66328 0.0932,-0.38024 -0.008,-0.90969 0.10239,-1.19738 1.19859,0.61185 2.03459,1.68154 3.06864,2.52992 2.3686,2.2115 5.04904,4.18095 8.15842,5.1996 1.50334,0.56231 3.10939,0.75781 4.70773,0.68958 2.7567,0.10247 5.4319,-0.81494 7.92666,-1.89989 3.97615,-1.75991 7.54882,-4.30028 11.40486,-6.26851 0.70615,-0.32936 1.45,-0.6372 2.22946,-0.72422 z"
             id="path14"
             inkscape:connector-curvature="0"
             style="fill:#ffbb00;stroke-width:0.26458332" />
          <path
             style="stroke-width:0.26458332"
             d="m -185.54085,537.95871 c -1.86354,-0.0513 -3.71395,1.09053 -4.29524,2.90009 -0.80439,2.43385 -0.62876,5.1308 0.0887,7.56629 0.83027,2.58064 2.51407,5.30252 5.3348,5.95181 2.94269,0.53469 5.86369,-0.85146 8.20155,-2.52651 1.85851,-1.39713 3.85075,-3.24591 3.84837,-5.7576 -0.0619,-2.32132 -2.11765,-3.86927 -3.91901,-4.97972 -2.8202,-1.61256 -5.94202,-3.14008 -9.25936,-3.15436 z"
             id="path16-6"
             inkscape:connector-curvature="0" />
          <path
             d="m -237.28012,446.5875 c -3.82138,-0.0173 -7.34139,2.00049 -10.06554,4.54528 -2.60948,2.39628 -5.61446,4.32541 -8.27247,6.66829 -1.77604,1.54951 -1.74074,4.34076 -0.55425,6.23253 1.64386,2.89586 4.63312,4.563 7.25858,6.4344 2.57154,1.94241 4.77944,4.53231 7.93168,5.5671 2.51651,0.84923 5.27659,0.71107 7.84305,0.17176 3.83698,-1.00306 6.97494,-3.59516 10.44919,-5.33426 2.73447,-1.09093 5.56948,-2.15694 7.8097,-4.14735 1.53975,-1.39255 3.05673,-3.09986 3.44064,-5.20435 0.16826,-1.45426 0.18786,-3.07816 -0.83584,-4.25027 -1.98406,-2.69531 -5.43295,-3.51658 -8.3865,-4.68259 -2.1699,-0.75544 -4.31826,-1.60724 -6.22935,-2.90407 -3.15833,-1.78795 -6.68814,-3.27105 -10.38913,-3.09642 z m 20.68433,13.30537 c 0.007,0.3112 0.13544,0.76917 -0.33012,0.72424 -3.36179,1.33072 -6.34127,3.46155 -9.53082,5.11995 -3.50838,1.96133 -7.32578,3.6502 -11.40963,3.60125 -3.93753,0.25736 -7.69196,-1.48146 -10.78653,-3.78619 -1.7317,-1.35869 -3.36286,-2.83898 -5.02047,-4.28546 -0.0387,-0.46897 -0.0805,-1.04939 0.42476,-0.45193 3.03848,2.5963 5.94916,5.56128 9.788,6.9551 2.58191,1.12514 5.461,1.06664 8.20314,0.76052 5.34008,-1.04061 9.91632,-4.19047 14.58807,-6.79767 1.2946,-0.69805 2.64453,-1.55602 4.07352,-1.8401 z"
             id="path18"
             inkscape:connector-curvature="0"
             style="fill:#ff9c00;stroke-width:0.26458332" />
        </g>
      </g>
    </g>
  </g>
</svg>
